HIERARCHY
ROOT hip
{
	OFFSET 0.000000 0.000000 0.000000 
	CHANNELS 6 Xposition Yposition Zposition Xrotation Zrotation Yrotation
	JOINT abdomen
	{
		OFFSET 0.000000 3.402643 0.000000 
		CHANNELS 3 Xrotation Zrotation Yrotation
		JOINT chest
		{
			OFFSET 0.000000 8.438565 -0.680529 
			CHANNELS 3 Xrotation Zrotation Yrotation
			JOINT neck
			{
				OFFSET 0.000000 10.207942 -0.272212 
				CHANNELS 3 Xrotation Zrotation Yrotation
				JOINT head
				{
					OFFSET 0.000000 3.130431 0.000000 
					CHANNELS 3 Xrotation Zrotation Yrotation
					End Site
					{
						OFFSET 0.000000 3.130435 0.000000 
					}
				}
			}
			JOINT lCollar
			{
				OFFSET 3.470700 6.669187 -0.816635 
				CHANNELS 3 Yrotation Zrotation Xrotation
				JOINT lShldr
				{
					OFFSET 3.198488 0.000000 0.000000 
					CHANNELS 3 Zrotation Yrotation Xrotation
					JOINT lForeArm
					{
						OFFSET 10.139888 0.000000 0.000000 
						CHANNELS 3 Yrotation Zrotation Xrotation
						JOINT lHand
						{
							OFFSET 8.370511 0.000000 0.000000 
							CHANNELS 3 Zrotation Yrotation Xrotation
							End Site
							{
								OFFSET 4.083176 0.000000 0.000000 
							}
						}
					}
				}
			}
			JOINT rCollar
			{
				OFFSET -3.470700 6.669187 -0.816635 
				CHANNELS 3 Yrotation Zrotation Xrotation
				JOINT rShldr
				{
					OFFSET -3.198488 0.000000 0.000000 
					CHANNELS 3 Zrotation Yrotation Xrotation
					JOINT rForeArm
					{
						OFFSET -10.139888 0.000000 0.000000 
						CHANNELS 3 Yrotation Zrotation Xrotation
						JOINT rHand
						{
							OFFSET -8.370511 0.000000 0.000000 
							CHANNELS 3 Zrotation Yrotation Xrotation
							End Site
							{
								OFFSET -4.083176 0.000000 0.000000 
							}
						}
					}
				}
			}
		}
	}
	JOINT lThigh
	{
		OFFSET 5.308129 -1.633274 1.361059 
		CHANNELS 3 Xrotation Zrotation Yrotation
		JOINT lShin
		{
			OFFSET -2.041588 -20.007561 0.000000 
			CHANNELS 3 Xrotation Zrotation Yrotation
			JOINT lFoot
			{
				OFFSET 0.000000 -19.190928 -1.224953 
				CHANNELS 3 Xrotation Yrotation Zrotation
				End Site
				{
					OFFSET 0.000000 -2.449906 4.627600 
				}
			}
		}
	}
	JOINT rThigh
	{
		OFFSET -5.308129 -1.633274 1.361059 
		CHANNELS 3 Xrotation Zrotation Yrotation
		JOINT rShin
		{
			OFFSET 2.041588 -20.007561 0.000000 
			CHANNELS 3 Xrotation Zrotation Yrotation
			JOINT rFoot
			{
				OFFSET 0.000000 -19.190928 -1.224953 
				CHANNELS 3 Xrotation Yrotation Zrotation
				End Site
				{
					OFFSET 0.000000 -2.449906 4.627600 
				}
			}
		}
	}
}
MOTION
Frames: 6
Frame Time: 0.033333
0.057799 45.536983 0.281780 15.788584 -5.488268 0.127305 0.000000 0.000000 0.000000 1.642393 2.636425 7.009778 7.783343 7.538754 0.523354 -23.891722 -4.277767 -5.415896 -29.166817 29.415899 24.994728 -96.539948 -11.585931 1.671384 -35.387089 2.960375 63.032406 -11.608629 0.106881 -58.562725 -3.093563 -16.720276 23.548933 62.111595 0.205334 67.461533 43.163925 -29.380714 30.479340 36.370178 -10.253793 -80.364258 -38.211960 2.655944 13.974998 66.411934 25.577715 3.003334 -22.152573 -17.105562 3.552004 -33.605743 -1.484645 2.033699 60.481640 -0.463707 4.519891 -13.092584 -3.189430 29.507923 
0.140282 47.724480 0.485428 18.717436 -5.439065 -0.686996 0.000000 0.000000 0.000000 -3.132899 2.316519 7.017802 9.515343 8.212486 0.573152 -21.689871 -4.170351 -5.483343 -28.753895 28.515509 24.993305 -96.026619 -9.855840 1.437624 -37.673878 1.412539 66.288193 -11.800439 0.566157 -58.557064 -4.108557 -15.450794 23.360237 63.282619 -0.969829 68.408501 41.300144 -32.820786 32.017223 38.404022 -8.872683 -80.770882 -35.341423 4.579922 15.059324 54.625526 22.279299 2.651280 -11.577538 -24.586164 3.788962 -31.113468 -1.660074 1.853885 51.603333 -0.271036 3.709564 -4.849181 -1.446004 30.059034 
0.245872 50.016109 0.602778 21.971443 -5.017707 -1.549012 0.000000 0.000000 0.000000 -8.186767 1.745026 6.917383 11.370671 8.720228 0.603623 -20.166288 -3.975996 -5.472214 -28.648306 26.295637 24.985771 -94.100578 -7.808023 0.478503 -39.070889 -0.005679 68.225601 -12.516207 1.590646 -58.709248 -4.749767 -13.597428 23.370739 63.613342 -1.941999 68.802658 39.382946 -35.889820 33.475502 39.431446 -6.237538 -80.904846 -34.372570 6.219868 15.706677 46.752590 18.463493 2.153752 -2.081418 -29.674255 7.625103 -31.107277 -2.245988 1.679897 47.478928 0.205069 3.414251 2.044688 0.034806 30.770887 
0.366596 52.104713 0.609397 24.552969 -4.479627 -2.028273 0.000000 0.000000 0.000000 -12.290480 1.105501 6.778714 13.096176 9.061974 0.624474 -19.680279 -3.984124 -5.707374 -29.195572 23.172283 24.992348 -91.502792 -6.235553 -0.863414 -38.957386 -0.221731 68.664680 -13.473704 2.666432 -58.932449 -4.932562 -11.144661 23.576399 61.919613 -2.497101 67.770760 38.921135 -36.153656 33.881496 39.341408 -4.768404 -80.862343 -37.022564 7.134198 15.490376 49.761021 17.533930 1.776587 1.467269 -31.071648 9.606548 -34.299759 -3.183318 1.562710 53.578842 1.015642 4.181530 5.918976 0.771859 32.243889 
0.477475 53.800663 0.656697 25.089355 -4.049670 -2.232725 0.000000 0.000000 0.000000 -14.207810 0.514116 6.631205 14.770499 9.315847 0.634146 -19.615145 -4.089452 -5.923749 -29.765472 20.405426 24.989862 -89.245583 -5.041911 -2.049539 -38.252609 0.290962 68.428566 -14.187037 3.417253 -59.118000 -5.075356 -9.112753 23.766100 59.436298 -2.548331 66.165504 39.614742 -33.919930 33.692562 38.771793 -5.090777 -80.828941 -40.007652 7.674819 15.058331 60.043285 18.851307 1.616178 1.569122 -29.437210 8.722681 -37.023636 -4.071915 1.447357 65.454185 1.464863 5.381202 7.781320 0.964952 32.575459 
0.572760 55.134953 0.766143 23.785107 -3.746910 -2.329459 0.000000 0.000000 0.000000 -14.139518 0.009703 6.513673 16.385319 9.481835 0.643789 -19.723732 -4.175903 -6.051786 -30.147871 18.288271 24.989784 -87.496109 -4.248634 -2.991453 -37.244976 1.178480 67.824379 -14.582624 3.846453 -59.262398 -5.218533 -7.710801 23.895828 56.794094 -2.205438 64.441383 40.765862 -30.151825 33.031048 37.923286 -6.629782 -80.795914 -42.363411 8.057191 14.678198 74.804024 20.841553 1.619628 0.792922 -24.982931 5.763322 -38.490070 -4.764943 1.284919 80.404846 1.211223 6.612992 9.236488 0.516357 31.989212 
